<?xml version="1.0" encoding="UTF-8" standalone="no"?>
<!-- Created with Inkscape (http://www.inkscape.org/) -->

<svg
   xmlns:dc="http://purl.org/dc/elements/1.1/"
   xmlns:cc="http://creativecommons.org/ns#"
   xmlns:rdf="http://www.w3.org/1999/02/22-rdf-syntax-ns#"
   xmlns:svg="http://www.w3.org/2000/svg"
   xmlns="http://www.w3.org/2000/svg"
   xmlns:xlink="http://www.w3.org/1999/xlink"
   xmlns:sodipodi="http://sodipodi.sourceforge.net/DTD/sodipodi-0.dtd"
   xmlns:inkscape="http://www.inkscape.org/namespaces/inkscape"
   width="48"
   height="48"
   id="svg3221"
   version="1.1"
   inkscape:version="0.48.1 r9760"
   sodipodi:docname="amps-logo-48.svg">
  <defs
     id="defs3223">
    <radialGradient
       inkscape:collect="always"
       xlink:href="#linearGradient4436"
       id="radialGradient4523"
       gradientUnits="userSpaceOnUse"
       gradientTransform="matrix(0,-1.0205852,1,6.3650692e-6,-12.036618,134.14705)"
       cx="60.43343"
       cy="72.470047"
       fx="60.43343"
       fy="72.470047"
       r="44.209694" />
    <linearGradient
       id="linearGradient4436">
      <stop
         style="stop-color:#ffffff;stop-opacity:1;"
         offset="0"
         id="stop4438" />
      <stop
         style="stop-color:#ffffff;stop-opacity:0;"
         offset="1"
         id="stop4440" />
    </linearGradient>
    <radialGradient
       inkscape:collect="always"
       xlink:href="#linearGradient4436"
       id="radialGradient4525"
       gradientUnits="userSpaceOnUse"
       gradientTransform="matrix(0.37342412,0.91488888,-0.92584832,0.37789535,94.281113,-23.70007)"
       cx="70.733719"
       cy="59.534527"
       fx="70.733719"
       fy="59.534527"
       r="44.209694" />
    <linearGradient
       id="linearGradient3183">
      <stop
         style="stop-color:#ffffff;stop-opacity:1;"
         offset="0"
         id="stop3185" />
      <stop
         style="stop-color:#ffffff;stop-opacity:0;"
         offset="1"
         id="stop3187" />
    </linearGradient>
  </defs>
  <sodipodi:namedview
     id="base"
     pagecolor="#ffffff"
     bordercolor="#666666"
     borderopacity="1.0"
     inkscape:pageopacity="0.0"
     inkscape:pageshadow="2"
     inkscape:zoom="1"
     inkscape:cx="48.40678"
     inkscape:cy="15.864407"
     inkscape:document-units="px"
     inkscape:current-layer="layer1"
     showgrid="false"
     inkscape:window-width="1095"
     inkscape:window-height="852"
     inkscape:window-x="74"
     inkscape:window-y="98"
     inkscape:window-maximized="0" />
  <metadata
     id="metadata3226">
    <rdf:RDF>
      <cc:Work
         rdf:about="">
        <dc:format>image/svg+xml</dc:format>
        <dc:type
           rdf:resource="http://purl.org/dc/dcmitype/StillImage" />
        <dc:title></dc:title>
      </cc:Work>
    </rdf:RDF>
  </metadata>
  <g
     inkscape:label="Layer 1"
     inkscape:groupmode="layer"
     id="layer1"
     transform="translate(0,-1004.3622)">
    <rect
       style="fill:#e9ddaf;fill-opacity:1;fill-rule:evenodd;stroke:#000000;stroke-width:2.16513658;stroke-opacity:1"
       id="rect2985"
       width="45.834969"
       height="45.828075"
       x="1.082568"
       y="1005.4449"
       rx="7.1617141"
       inkscape:export-filename="/Users/jklo/projects/lr/workspace/StandardsPlugin/chrome/images/amps-48.png"
       inkscape:export-xdpi="90"
       inkscape:export-ydpi="90" />
    <path
       style="fill:#000000;fill-opacity:1;fill-rule:evenodd;stroke:#000000;stroke-width:0.40384677;stroke-opacity:1"
       d="m 0.20360002,1013.8278 0,29.5609 c 0,4.8597 3.31637948,8.7716 7.43639138,8.7716 l 32.7201206,0 c 4.120013,0 7.436393,-3.9119 7.436393,-8.7716 l 0,-29.5609 -47.59290498,0 z"
       id="rect2985-7"
       inkscape:connector-curvature="0"
       inkscape:export-filename="/Users/jklo/projects/lr/workspace/StandardsPlugin/chrome/images/amps-48.png"
       inkscape:export-xdpi="90"
       inkscape:export-ydpi="90" />
    <g
       id="g4518"
       transform="matrix(0.34459787,0,0,0.34454605,1.9417104,1008.5747)"
       inkscape:export-filename="/Users/jklo/projects/lr/workspace/StandardsPlugin/chrome/images/amps-48.png"
       inkscape:export-xdpi="90"
       inkscape:export-ydpi="90">
      <path
         transform="translate(3.2492783,8)"
         d="m 101.82628,71.696053 c 0,22.759485 -18.45021,41.209697 -41.209695,41.209697 -22.759486,0 -41.209694,-18.450212 -41.209694,-41.209697 0,-22.759486 18.450208,-41.209694 41.209694,-41.209694 22.759485,0 41.209695,18.450208 41.209695,41.209694 z"
         sodipodi:ry="41.209694"
         sodipodi:rx="41.209694"
         sodipodi:cy="71.696053"
         sodipodi:cx="60.616585"
         id="path4364"
         style="fill:url(#radialGradient4523);fill-opacity:1;fill-rule:evenodd;stroke:#4d4d4d;stroke-width:6;stroke-opacity:1"
         sodipodi:type="arc" />
      <path
         transform="matrix(0.4498499,0,0,0.4498499,36.597498,47.44359)"
         d="m 101.82628,71.696053 c 0,22.759485 -18.45021,41.209697 -41.209695,41.209697 -22.759486,0 -41.209694,-18.450212 -41.209694,-41.209697 0,-22.759486 18.450208,-41.209694 41.209694,-41.209694 22.759485,0 41.209695,18.450208 41.209695,41.209694 z"
         sodipodi:ry="41.209694"
         sodipodi:rx="41.209694"
         sodipodi:cy="71.696053"
         sodipodi:cx="60.616585"
         id="path4364-2-6"
         style="fill:#000000;fill-opacity:1;fill-rule:evenodd;stroke:#333333;stroke-width:6;stroke-opacity:1"
         sodipodi:type="arc" />
      <path
         transform="matrix(0.4498499,0,0,0.4498499,36.597499,47.44359)"
         d="m 101.82628,71.696053 c 0,22.759485 -18.45021,41.209697 -41.209695,41.209697 -22.759486,0 -41.209694,-18.450212 -41.209694,-41.209697 0,-22.759486 18.450208,-41.209694 41.209694,-41.209694 22.759485,0 41.209695,18.450208 41.209695,41.209694 z"
         sodipodi:ry="41.209694"
         sodipodi:rx="41.209694"
         sodipodi:cy="71.696053"
         sodipodi:cx="60.616585"
         id="path4364-2"
         style="fill:url(#radialGradient4525);fill-opacity:1;fill-rule:evenodd;stroke:#4d4d4d;stroke-width:6;stroke-opacity:1"
         sodipodi:type="arc" />
    </g>
    <text
       xml:space="preserve"
       style="font-size:16px;font-style:italic;font-variant:normal;font-weight:bold;font-stretch:normal;line-height:125%;letter-spacing:0px;word-spacing:0px;fill:#ffffff;fill-opacity:1;stroke:none;font-family:SF Americana Dreams;-inkscape-font-specification:SF Americana Dreams Bold Italic"
       x="16.218908"
       y="1019.7845"
       id="text4527"
       sodipodi:linespacing="125%"
       transform="scale(1.0000752,0.99992481)"
       inkscape:export-filename="/Users/jklo/projects/lr/workspace/StandardsPlugin/chrome/images/amps-48.png"
       inkscape:export-xdpi="90"
       inkscape:export-ydpi="90"><tspan
         sodipodi:role="line"
         id="tspan4529"
         x="16.218908"
         y="1019.7845"
         style="font-size:16px">_amps_</tspan></text>
    <g
       id="g3164"
       transform="matrix(0,-0.37494571,0.3750021,0,34.34468,1050.3921)"
       inkscape:export-filename="/Users/jklo/projects/lr/workspace/StandardsPlugin/chrome/images/amps-48.png"
       inkscape:export-xdpi="90"
       inkscape:export-ydpi="90">
      <path
         transform="matrix(1,0,0,-1,6.5598944,33.964114)"
         d="m 103.28093,12.791249 c 0,1.472513 -1.19371,2.66622 -2.66622,2.66622 -1.472514,0 -2.666222,-1.193707 -2.666222,-2.66622 0,-1.472512 1.193708,-2.666219 2.666222,-2.666219 1.47251,0 2.66622,1.193707 2.66622,2.666219 z"
         sodipodi:ry="2.6662195"
         sodipodi:rx="2.6662195"
         sodipodi:cy="12.791249"
         sodipodi:cx="100.61471"
         id="path3038"
         style="fill:#ff0000;fill-opacity:1;fill-rule:evenodd;stroke:#4d4d4d;stroke-width:0.5;stroke-opacity:1"
         sodipodi:type="arc" />
      <path
         d="m 103.28093,12.791249 c 0,1.472513 -1.19371,2.66622 -2.66622,2.66622 -1.472514,0 -2.666222,-1.193707 -2.666222,-2.66622 0,-1.472512 1.193708,-2.666219 2.666222,-2.666219 1.47251,0 2.66622,1.193707 2.66622,2.666219 z"
         sodipodi:ry="2.6662195"
         sodipodi:rx="2.6662195"
         sodipodi:cy="12.791249"
         sodipodi:cx="100.61471"
         id="path3038-1"
         style="fill:#008000;fill-opacity:1;fill-rule:evenodd;stroke:#4d4d4d;stroke-width:0.5;stroke-opacity:1"
         sodipodi:type="arc"
         transform="translate(6.5598944,-2.7859449)" />
    </g>
    <g
       id="g3893"
       transform="matrix(0.3750021,0,0,0.37494571,-1.6726075,1005.336)"
       inkscape:export-filename="/Users/jklo/projects/lr/workspace/StandardsPlugin/chrome/images/amps-48.png"
       inkscape:export-xdpi="90"
       inkscape:export-ydpi="90">
      <rect
         rx="4.1338534"
         y="5.0337753"
         x="20.632843"
         height="15.917166"
         width="15.917166"
         id="rect3891"
         style="fill:#ff0000;fill-opacity:1;fill-rule:evenodd;stroke:#ffffff;stroke-width:1.08283389;stroke-opacity:1" />
      <path
         inkscape:connector-curvature="0"
         id="path3830"
         d="m 27.439873,6.9306251 1.226123,0.12261 0.122612,3.5557599 1.839184,-0.12261 2.452247,3.43314 c 0,0 0.858285,2.57487 -1.103511,2.9427 -1.961797,0.36784 -0.858287,0.73567 0,0.73567 0.858286,0 1.348735,0.12262 1.348735,0.12262 l -0.122612,0.85828 -8.215024,0.12262 0,-0.9809 2.942695,-1.10352 0.735674,0.36784 0.122612,-0.98089 -2.207021,0 0,-0.61307 -1.471348,-0.12261 0,-0.36784 5.517553,0.12262 c 0,0 2.329634,-0.85829 0,-1.9618 -2.329633,-1.10351 -1.593959,-0.24523 -1.593959,-0.24523 l -0.490449,1.47135 -0.858286,0 -0.122613,-0.85829 -0.735673,-0.12261 -0.245225,0.49045 -0.735673,-0.36784 0.490449,-1.34873 0.858286,0 -0.245225,-1.59396 0.490449,0 z"
         style="fill:#ffffff;stroke:#ffffff;stroke-width:0.09750692px;stroke-linecap:butt;stroke-linejoin:miter;stroke-opacity:1" />
    </g>
    <g
       id="g4512"
       transform="matrix(0.3750021,0,0,0.37494571,-6.1394386,1002.6635)"
       inkscape:export-filename="/Users/jklo/projects/lr/workspace/StandardsPlugin/chrome/images/amps-48.png"
       inkscape:export-xdpi="90"
       inkscape:export-ydpi="90">
      <g
         transform="translate(27.042148,6.7187738)"
         id="g4299"
         style="display:inline">
        <rect
           style="fill:#008000;fill-opacity:1;fill-rule:evenodd;stroke:#ffffff;stroke-width:1.08283389;stroke-opacity:1"
           id="rect3891-4"
           width="15.917166"
           height="15.917166"
           x="42.382359"
           y="5.442759"
           rx="4.1338534" />
        <path
           inkscape:connector-curvature="0"
           style="fill:#ffffff;fill-opacity:1;fill-rule:evenodd;stroke:#ffffff;stroke-width:0.14843215;stroke-opacity:1"
           d="m 50.340942,7.3063469 c -0.481093,0 -0.947259,0.06165 -1.39619,0.166986 l 0,1.790463 c -0.183928,0.06227 -0.366027,0.132828 -0.538067,0.21801 l -1.266312,-1.266312 c -0.80328,0.497013 -1.482724,1.177981 -1.980641,1.9806421 l 1.266312,1.266311 c -0.08628,0.173733 -0.159755,0.352187 -0.222648,0.538067 l -1.795102,0 c -0.105951,0.450151 -0.162347,0.918305 -0.162347,1.400828 0,0.481605 0.05679,0.951461 0.162347,1.400829 l 1.795102,0 c 0.06255,0.184873 0.13695,0.365203 0.222648,0.538066 l -1.27095,1.27095 c 0.497967,0.803492 1.181427,1.478563 1.985279,1.976003 l 1.266312,-1.266312 c 0.172423,0.08548 0.35369,0.155554 0.538067,0.21801 l 0,1.795101 c 0.448931,0.105341 0.915097,0.162348 1.39619,0.162348 0.481755,0 0.951329,-0.05673 1.400828,-0.162348 l 0,-1.790462 c 0.185494,-0.0627 0.364708,-0.136622 0.538067,-0.222649 l 1.266311,1.266312 c 0.804574,-0.498012 1.482629,-1.176066 1.980641,-1.980641 l -1.266311,-1.266312 c 0.0849,-0.171821 0.155922,-0.354388 0.218009,-0.538066 l 1.795102,0 c 0.105556,-0.449368 0.162347,-0.919224 0.162347,-1.400829 0,-0.482523 -0.0564,-0.950677 -0.162347,-1.400828 l -1.795102,0 c -0.06222,-0.184074 -0.137513,-0.361266 -0.222648,-0.533428 l 1.27095,-1.27095 C 55.028889,9.3928979 54.349766,8.7128369 53.546148,8.2154939 l -1.266311,1.266312 C 52.1073,9.3962959 51.92632,9.3262129 51.74177,9.2637959 l 0,-1.790463 c -0.449499,-0.105622 -0.919073,-0.166986 -1.400828,-0.166986 z m 0,3.7479121 c 1.296565,0 2.347083,1.050518 2.347083,2.347083 0,1.296565 -1.050518,2.347083 -2.347083,2.347083 -1.296566,0 -2.347084,-1.050518 -2.347084,-2.347083 0,-1.296565 1.050518,-2.347083 2.347084,-2.347083 z"
           id="rect3951" />
        <path
           sodipodi:type="arc"
           style="fill:none;stroke:#008000;stroke-width:0.5;stroke-opacity:1"
           id="path4097"
           sodipodi:cx="41.188667"
           sodipodi:cy="26.384659"
           sodipodi:rx="2.8373723"
           sodipodi:ry="2.8373723"
           d="m 44.02604,26.384659 c 0,1.567037 -1.270335,2.837372 -2.837373,2.837372 -1.567037,0 -2.837372,-1.270335 -2.837372,-2.837372 0,-1.567038 1.270335,-2.837372 2.837372,-2.837372 1.567038,0 2.837373,1.270334 2.837373,2.837372 z"
           transform="matrix(1.1009918,0,0,1.1009918,4.9925584,-15.64795)" />
      </g>
    </g>
    <g
       id="g4284"
       transform="matrix(0.3750021,0,0,0.37494571,-18.839049,1004.8978)"
       inkscape:export-filename="/Users/jklo/projects/lr/workspace/StandardsPlugin/chrome/images/amps-48.png"
       inkscape:export-xdpi="90"
       inkscape:export-ydpi="90">
      <rect
         rx="4.1338534"
         y="6.202508"
         x="84.849854"
         height="15.917166"
         width="15.917166"
         id="rect3891-4-5-6"
         style="fill:#ff6600;fill-opacity:1;fill-rule:evenodd;stroke:#ffffff;stroke-width:1.08283389;stroke-opacity:1;display:inline" />
      <path
         sodipodi:nodetypes="sssccccccsssssssssssss"
         inkscape:connector-curvature="0"
         id="path4216"
         d="m 89.358714,8.4933319 c -0.284803,0 -0.514085,0.2763239 -0.514085,0.6195603 l 0,5.1500948 c 0,0.333394 0.216584,0.604334 0.489987,0.61956 l -2.361577,3.736723 0,1.171356 11.671542,0.03822 -2.08e-4,-1.20958 -2.337479,-3.736723 c 0.261926,-0.02921 0.465889,-0.29601 0.465889,-0.61956 l 0,-5.1500948 c 0,-0.3432364 -0.229282,-0.6195603 -0.514085,-0.6195603 z m 0.361466,0.4259477 6.177052,0 c 0.284803,0 0.514085,0.2763239 0.514085,0.6195602 l 0,4.3369222 c 0,0.343236 -0.229282,0.61956 -0.514085,0.61956 l -6.177052,0 c -0.284803,0 -0.514085,-0.276324 -0.514085,-0.61956 l 0,-4.3369222 c 0,-0.3432363 0.229282,-0.6195602 0.514085,-0.6195602 z"
         style="fill:#ffffff;stroke:#ffffff;stroke-width:0.28218195px;stroke-linecap:butt;stroke-linejoin:miter;stroke-opacity:1" />
      <path
         inkscape:connector-curvature="0"
         id="path4219"
         d="m 86.972291,18.583187 11.641617,0.07794"
         style="fill:#ff6600;stroke:#ff6600;stroke-width:0.28218195px;stroke-linecap:butt;stroke-linejoin:miter;stroke-opacity:1" />
      <path
         inkscape:connector-curvature="0"
         id="path4221"
         d="m 88.556844,16.962909 8.407837,0"
         style="fill:#ff6600;stroke:#ff6600;stroke-width:0.28218195px;stroke-linecap:butt;stroke-linejoin:miter;stroke-opacity:1" />
      <path
         inkscape:connector-curvature="0"
         id="path4223"
         d="m 88.944899,16.417909 7.631727,0"
         style="fill:#ff6600;stroke:#ff6600;stroke-width:0.28218195px;stroke-linecap:butt;stroke-linejoin:miter;stroke-opacity:1" />
      <path
         inkscape:connector-curvature="0"
         id="path4225"
         d="m 89.429966,15.855102 6.790944,0.03897"
         style="fill:#ff6600;stroke:#ff6600;stroke-width:0.28218195px;stroke-linecap:butt;stroke-linejoin:miter;stroke-opacity:1" />
      <path
         inkscape:connector-curvature="0"
         id="path4227"
         d="m 89.397628,14.880788 6.823282,0.03897 0.03234,0"
         style="fill:#ff6600;stroke:#ff6600;stroke-width:0.28218195px;stroke-linecap:butt;stroke-linejoin:miter;stroke-opacity:1" />
      <path
         sodipodi:nodetypes="ccccc"
         inkscape:connector-curvature="0"
         id="path4229"
         d="m 91.887639,17.686816 1.810919,0 0.06468,0.428699 -1.940273,-3e-6 z"
         style="fill:#ff6600;stroke:#ff6600;stroke-width:0.28218195px;stroke-linecap:butt;stroke-linejoin:miter;stroke-opacity:1" />
    </g>
    <g
       id="g4294"
       transform="matrix(0.3750021,0,0,0.37494571,3.4258926,1005.1228)"
       inkscape:export-filename="/Users/jklo/projects/lr/workspace/StandardsPlugin/chrome/images/amps-48.png"
       inkscape:export-xdpi="90"
       inkscape:export-ydpi="90">
      <rect
         rx="4.1338534"
         y="5.6025457"
         x="62.357189"
         height="15.917166"
         width="15.917166"
         id="rect3891-4-5"
         style="fill:#0000ff;fill-opacity:1;fill-rule:evenodd;stroke:#ffffff;stroke-width:1.08283389;stroke-opacity:1;display:inline" />
      <text
         sodipodi:linespacing="125%"
         id="text4100"
         y="18.432711"
         x="64.477386"
         style="font-size:12px;font-style:normal;font-weight:bold;line-height:125%;letter-spacing:0px;word-spacing:0px;fill:#ffffff;fill-opacity:1;stroke:none;font-family:Sans;-inkscape-font-specification:Sans Bold"
         xml:space="preserve"><tspan
           style="font-size:22px;font-style:normal;font-variant:normal;font-weight:bold;font-stretch:normal;fill:#ffffff;font-family:Times New Roman;-inkscape-font-specification:Times New Roman"
           y="18.432711"
           x="64.477386"
           id="tspan4102"
           sodipodi:role="line">π</tspan></text>
    </g>
  </g>
</svg>
